inDegrees=no
num_controls=7
num_derivatives=13
num_iterations=149
num_multipliers=7
num_parameters=0
num_slacks=7
num_states=26
objective=4.948296
objective_accelerations=0.480252
objective_balance=0.031943
objective_effort=0.291533
objective_height=4.123239
objective_ligament=0.021329
solver_duration=1653.183222
status=Solve_Succeeded
success=true
DataType=double
version=3
OpenSimVersion=4.4-2022-07-23-0e9fedc
endheader
time	/jointset/ground_pelvis/pelvis_tilt/value	/jointset/ground_pelvis/pelvis_tx/value	/jointset/ground_pelvis/pelvis_ty/value	/jointset/hip_l/hip_flexion_l/value	/jointset/hip_l/hip_adduction_l/value	/jointset/hip_l/hip_rotation_l/value	/jointset/back/lumbar_extension/value	/jointset/patellofemoral_l/patellar_flexion_l/value	/jointset/knee_l/knee_flexion_l/value	/jointset/knee_l/knee_adduction_l/value	/jointset/knee_l/knee_rotation_l/value	/jointset/ankle_l/ankle_angle_l/value	/jointset/subtalar_l/subtalar_angle_l/value	/jointset/ground_pelvis/pelvis_tilt/speed	/jointset/ground_pelvis/pelvis_tx/speed	/jointset/ground_pelvis/pelvis_ty/speed	/jointset/hip_l/hip_flexion_l/speed	/jointset/hip_l/hip_adduction_l/speed	/jointset/hip_l/hip_rotation_l/speed	/jointset/back/lumbar_extension/speed	/jointset/patellofemoral_l/patellar_flexion_l/speed	/jointset/knee_l/knee_flexion_l/speed	/jointset/knee_l/knee_adduction_l/speed	/jointset/knee_l/knee_rotation_l/speed	/jointset/ankle_l/ankle_angle_l/speed	/jointset/subtalar_l/subtalar_angle_l/speed	/forceset/tau_hip_flexion_l	/forceset/tau_hip_adduction_l	/forceset/tau_hip_rotation_l	/forceset/tau_knee_flexion_l	/forceset/tau_ankle_angle_l	/forceset/tau_subtalar_angle_l	/forceset/tau_lumbar_extension	lambda_cid13_p0	lambda_cid13_p1	lambda_cid13_p2	lambda_cid13_p3	lambda_cid13_p4	lambda_cid13_p5	lambda_cid14_p0	/jointset/ground_pelvis/pelvis_tilt/accel	/jointset/ground_pelvis/pelvis_tx/accel	/jointset/ground_pelvis/pelvis_ty/accel	/jointset/hip_l/hip_flexion_l/accel	/jointset/hip_l/hip_adduction_l/accel	/jointset/hip_l/hip_rotation_l/accel	/jointset/back/lumbar_extension/accel	/jointset/patellofemoral_l/patellar_flexion_l/accel	/jointset/knee_l/knee_flexion_l/accel	/jointset/knee_l/knee_adduction_l/accel	/jointset/knee_l/knee_rotation_l/accel	/jointset/ankle_l/ankle_angle_l/accel	/jointset/subtalar_l/subtalar_angle_l/accel	gamma_cid13_p0	gamma_cid13_p1	gamma_cid13_p2	gamma_cid13_p3	gamma_cid13_p4	gamma_cid13_p5	gamma_cid14_p0
1	-0.6889022579607296	-0.1712431161672185	0.6426555391242583	1.756182262571576	-0.4674429128648643	-0.1548377361656823	-0.2617963061025592	0.9274049164403642	0.9274049164403568	-0.1744035523538534	-0.1745319950209652	-0.08643324323077269	-0.1608165664742885	-0.01763845928655709	0.01076892273588404	0.004245751607926938	-0.0004027828022913622	0.0003323621457745878	0.00056388633270561	-2.772628958676663e-05	-0.000376745711599516	-0.0003767457115987035	-0.0001884585807318687	-3.075241517562152e-05	0.01856510986392272	0.008546301283662237	-0.3881322439824041	0.016171984121389	-0.00139555939384802	-0.190658868462241	0.163271122510158	0.08332426609347958	0.3175458437338777	11.47536240842032	-39.24833560639078	7.122240132848759	-8.702180132015178	-626.6373934968906	-54.80137560615191	-20.08532902497817	2.356284691973191	0.7178215692847583	1.486626329026382	-6.377071672483284	0.2836410861629654	-1.665672083488829	-0.02608144494188943	-3.466040951064644	-3.466040951064734	-0.03186079192363894	0.001011594700918425	0.2153830658883948	0.3984090441687678	2.107112324153812e-09	5.3124527406784e-09	-4.62493171759636e-09	1.584662472465307e-09	-1.999839266676281e-09	6.271793729770325e-09	1.323939840328918e-09
1.01	-0.6889621000913383	-0.1710996239941419	0.6427721620016086	1.755861015452783	-0.4674248474053547	-0.1549156803335089	-0.2617965518344957	0.9272279113520429	0.927227911352038	-0.1744057369166366	-0.1745319701279948	-0.08623680193621101	-0.1607106089163738	0.005666896063284813	0.01793254017909506	0.01907427263030562	-0.06383862042416115	0.003274043226659938	-0.01616383568485677	-2.02528574527905e-05	-0.03501612080166897	-0.03501612080166758	-0.0002509720730544642	1.88281868290225e-05	0.02072182575937811	0.01263837007269629	-0.3879191135017611	0.01617683799425205	-0.001399574516863748	-0.1906415907049776	0.1632070329842099	0.08328956425864123	0.3173969207882756	11.46915601452396	-39.2377192054722	7.126877048770885	-8.786058952214685	-626.4641215215887	-54.81754273991501	-20.09352826976454	2.317190034937453	0.7160857338000819	1.480281054573796	-6.325637198261925	0.2984302171839041	-1.677991615121756	0.01433682292542418	-3.461662559928705	-3.461662559928567	0.006174265807051589	0.004397386721423675	0.2156176143405829	0.4135795932143227	-1.772068543458625e-10	-1.822999125784875e-09	3.818297436069431e-09	-1.68184426113292e-09	-6.204889312165692e-09	1.924052196174233e-08	-2.735873359868336e-09
1.02	-0.6887889828527624	-0.1708844048662411	0.6430369333023287	1.754905650479519	-0.467377565415409	-0.1551612355923556	-0.2617966878149792	0.9267047571584321	0.9267047571584358	-0.1744086224356193	-0.1745319562103443	-0.08601883313010078	-0.16056393591118	0.02895341455103695	0.02511431370074475	0.03387543628186561	-0.1272263536949561	0.006175668232847008	-0.032958331871693	-5.775999944035524e-06	-0.0696065667697648	-0.06960656676976354	-0.0003286498176296473	-3.294746031988504e-05	0.02287061217349009	0.0166893907394737	-0.3877059830211675	0.01618169186711623	-0.00140358963994776	-0.1906243129477008	0.163142943458271	0.08325486242380904	0.3172479978426143	11.4596272177823	-39.22751321449025	7.132712731198845	-8.890641681489219	-626.36527622326	-54.84019823266946	-20.11771626101519	2.352517319555246	0.7214527849724827	1.481154854862636	-6.367450802268301	0.275629871223273	-1.67902691734368	-0.02468075986705106	-3.456255126669902	-3.456255126670134	-0.03489364237415957	-0.01925965512988394	0.2137971696196871	0.390199419717393	-2.580974347852983e-09	-4.196215094370104e-09	1.669226977511312e-08	-2.212785621469498e-09	-9.819784533860624e-09	2.804969989422378e-08	-5.62396967090976e-09
1.03	-0.688383124749728	-0.1705972928140651	0.6434495382831532	1.753316802619245	-0.4673012645478906	-0.1555746203733954	-0.2617966575515417	0.925835870251711	0.9258358702517125	-0.1744123613288239	-0.1745324959936885	-0.08577946321943178	-0.160376780059613	0.05221097905373821	0.03230944304880175	0.04863686316212829	-0.1905185774523366	0.009098997624154432	-0.04968584684628466	1.274237719427022e-05	-0.1041702101855188	-0.1041702101855143	-0.0004193421257886031	-4.462614737209145e-05	0.02499738584109837	0.02075364519595631	-0.3871710732533403	0.01627259196148374	-0.001406855185432364	-0.1905511279902932	0.1629048276193371	0.08320156968496198	0.3168755283384432	11.40822479801271	-39.20214610762439	7.136410729314879	-8.935592369018542	-626.0310643331866	-54.90661270161869	-20.15793304036516	2.311290544142969	0.7187444105947969	1.472329388859286	-6.306413698395763	0.3028577368577013	-1.664703112166178	0.01525518969409233	-3.456326573495108	-3.456326573494447	0.003809529355890295	0.0124428170533712	0.2112207877363483	0.4163158332684598	-4.985960701717324e-09	-6.520836819099409e-09	2.961145377931376e-08	-2.715813049425839e-09	-1.342865776755765e-08	3.681643343589407e-08	-8.500109687163874e-09
1.04	-0.6877449080959681	-0.170238189188234	0.6440094960896305	1.751095771414199	-0.4671952957337062	-0.1561542981691235	-0.2617964146936883	0.9246213653859503	0.9246213653859455	-0.1744170138342973	-0.1745322396048795	-0.08551900490760687	-0.1601486261885502	0.07542512469705619	0.03951262843176812	0.06334600141241317	-0.2536630226466307	0.01210925756639761	-0.06621693480684497	3.674288192645008e-05	-0.1387301585799537	-0.1387301585799448	-0.0005113722582403316	0.000126286867425372	0.0270882924049018	0.02488899463862859	-0.3866361634856094	0.01636349205581797	-0.001410120731207672	-0.1904779430328513	0.1626667117804067	0.08314827694608667	0.3165030588341755	11.35346223085924	-39.17716242801449	7.141279916692908	-9.000976500351964	-625.7719685470099	-54.97972073198984	-20.21412220559153	2.343833547678605	0.7230639919543292	1.470697128867072	-6.337895089650999	0.2930159814104796	-1.639741514537308	-0.02358433434833716	-3.45551612240611	-3.455516122406119	-0.03516120723269524	0.01725868524017602	0.2066237488586871	0.4044184169553646	-6.541838259834534e-09	-1.114131311474055e-08	3.873069590600141e-08	-5.636412797436172e-09	-1.649869199587056e-08	4.604057809364069e-08	-1.155736707516143e-08
1.05	-0.6868746896760388	-0.1698069983288104	0.6447162122718638	1.748244154371562	-0.4670587481912947	-0.1568980648461318	-0.2617959446688444	0.9230614386261944	0.9230614386261904	-0.1744226351887732	-0.1745292374111226	-0.08523779448510323	-0.1598787131351604	0.09861704868913311	0.04672816910939079	0.07798131551098235	-0.3166212611174957	0.01522092630328504	-0.08248453061200636	5.622664639908035e-05	-0.1732386429268251	-0.1732386429268217	-0.0006097988191909485	0.0005155977733818186	0.02915045494740833	0.02911276834324145	-0.3857848187078756	0.01651382811964778	-0.001409690986340552	-0.1902904194792284	0.1622420771440081	0.08308184149688558	0.3159194615809802	11.25830689381112	-39.1393698898622	7.14407439999285	-9.040951816998561	-625.2117220528012	-55.09046373205845	-20.28627864523753	2.306642827017012	0.7211911973643661	1.45755668063547	-6.268922272686446	0.3233426529162365	-1.612498203761742	0.01455941583037793	-3.446029069197662	-3.446029069198512	0.003278679050544974	0.05599616281364227	0.2055133576548199	0.4342265918533041	-8.07118116808465e-09	-1.583353486572267e-08	4.773118984901679e-08	-8.632561680448178e-09	-1.955188750526521e-08	5.527901684876469e-08	-1.462028438102597e-08
